<svg xmlns="http://www.w3.org/2000/svg" width="1024" height="1024" viewBox="0 0 1024 1024">
  <defs>
    <linearGradient id="tile" x1="176" y1="104" x2="848" y2="920" gradientUnits="userSpaceOnUse">
      <stop offset="0" stop-color="#30323A"/>
      <stop offset="0.5" stop-color="#151820"/>
      <stop offset="1" stop-color="#05070B"/>
    </linearGradient>
    <linearGradient id="wave" x1="260" y1="310" x2="770" y2="714" gradientUnits="userSpaceOnUse">
      <stop offset="0" stop-color="#0EA5E9"/>
      <stop offset="0.52" stop-color="#10B981"/>
      <stop offset="1" stop-color="#14B8A6"/>
    </linearGradient>
    <filter id="shadow" x="-64" y="-64" width="1152" height="1152" filterUnits="userSpaceOnUse" color-interpolation-filters="sRGB">
      <feDropShadow dx="0" dy="22" stdDeviation="30" flood-color="#000000" flood-opacity="0.34"/>
      <feDropShadow dx="0" dy="3" stdDeviation="8" flood-color="#000000" flood-opacity="0.18"/>
    </filter>
    <filter id="barShadow" x="198" y="228" width="628" height="568" filterUnits="userSpaceOnUse" color-interpolation-filters="sRGB">
      <feDropShadow dx="0" dy="16" stdDeviation="20" flood-color="#000000" flood-opacity="0.28"/>
      <feDropShadow dx="0" dy="0" stdDeviation="10" flood-color="#22D3EE" flood-opacity="0.14"/>
    </filter>
  </defs>

  <rect x="0" y="0" width="1024" height="1024" fill="#05070B"/>
  <rect x="0" y="0" width="1024" height="1024" rx="224" fill="url(#tile)" filter="url(#shadow)"/>

  <g filter="url(#barShadow)">
    <rect x="246" y="470" width="34" height="84" rx="17" fill="url(#wave)"/>
    <rect x="300" y="428" width="34" height="168" rx="17" fill="url(#wave)"/>
    <rect x="354" y="386" width="34" height="252" rx="17" fill="url(#wave)"/>
    <rect x="408" y="280" width="34" height="464" rx="17" fill="url(#wave)"/>
    <rect x="462" y="214" width="34" height="596" rx="17" fill="url(#wave)"/>
    <rect x="516" y="280" width="34" height="464" rx="17" fill="url(#wave)"/>
    <rect x="570" y="344" width="34" height="336" rx="17" fill="url(#wave)"/>
    <rect x="624" y="408" width="34" height="208" rx="17" fill="url(#wave)"/>
    <rect x="678" y="366" width="34" height="292" rx="17" fill="url(#wave)"/>
    <rect x="732" y="408" width="34" height="208" rx="17" fill="url(#wave)"/>
    <rect x="786" y="450" width="34" height="124" rx="17" fill="url(#wave)"/>
  </g>
</svg>
